# xmcd CD database file
#
# Track frame offsets:
#	182
#	22710
#	40752
#	62272
#	82385
#	102305
#	121130
#	139595
#	163382
#	180995
#	196157
#	212800
#
# Disc length: 3170 seconds
#
# Revision: 1
# Processed by: cddbd v1.5.2PL0 Copyright (c) Steve Scherf et al.
# Submitted via: CDex 1.51
#
DISCID=990c600c
DTITLE=George Benson - The Love Songs
DYEAR=1900
DGENRE=Pop
TTITLE0=Give Me The Night
TTITLE1=Lady Love Me (One More Time)
TTITLE2=Love x Love
TTITLE3=New Day
TTITLE4=Feel Like Making Love
TTITLE5=20/20
TTITLE6=Never Give Up On A Good Thing
TTITLE7=Inside Love (So Personal)
TTITLE8=No One Emotion
TTITLE9=In Your Eyes
TTITLE10=Turn Your Love Around
TTITLE11=The Greatest Love Of All
EXTD=
EXTT0=
EXTT1=
EXTT2=
EXTT3=
EXTT4=
EXTT5=
EXTT6=
EXTT7=
EXTT8=
EXTT9=
EXTT10=
EXTT11=
PLAYORDER=
